<svg width="21" height="20" viewBox="0 0 21 20" fill="none" xmlns="http://www.w3.org/2000/svg">
<path d="M9.18602 13.4309H7.3765V0.409503C7.3765 0.183253 7.17411 0 6.92474 0H3.28132C3.03195 0 2.82956 0.183253 2.82956 0.409503V13.4309H1.02004C0.846116 13.4309 0.687549 13.5216 0.612558 13.6637C0.537566 13.806 0.55925 13.9743 0.668124 14.0971L4.75111 19.6162C4.83694 19.7131 4.96637 19.769 5.10303 19.769C5.23969 19.769 5.36911 19.7131 5.45495 19.6162L9.53793 14.0971C9.64681 13.9743 9.66849 13.806 9.5935 13.6637C9.51851 13.5216 9.35994 13.4309 9.18602 13.4309Z" fill="#8E8E8E"/>
<path d="M20.5426 8.05014L17.5317 0.315863C17.468 0.152267 17.2972 0.0427246 17.1057 0.0427246H16.2336C16.2096 0.0427246 16.1854 0.0443626 16.1619 0.0478434C16.1385 0.0441579 16.1145 0.0427246 16.0901 0.0427246H15.2408C15.0488 0.0427246 14.8783 0.152267 14.8144 0.316273L11.8156 8.05055C11.767 8.17566 11.7885 8.31448 11.8732 8.42279C11.9579 8.5311 12.095 8.5956 12.2418 8.5956H13.546C13.7448 8.5956 13.9201 8.47807 13.9782 8.30567L14.5508 6.60132H17.8077L18.3805 8.30567C18.4384 8.47807 18.6139 8.5956 18.8126 8.5956H20.1162C20.2626 8.5956 20.4003 8.53131 20.485 8.42279C20.57 8.31407 20.5912 8.17525 20.5426 8.05014ZM15.0913 4.97232C15.6327 3.3814 15.9993 2.27656 16.18 1.6879L17.2932 4.97232H15.0913Z" fill="#8E8E8E"/>
<path d="M19.2451 18.3944H15.2206L19.496 12.8242C19.5484 12.7554 19.5767 12.6739 19.5767 12.5901V11.8907C19.5767 11.6647 19.3743 11.4812 19.1249 11.4812H13.2362C12.9869 11.4812 12.7845 11.6647 12.7845 11.8907V12.6778C12.7845 12.904 12.9869 13.0873 13.2362 13.0873H17.0269L12.7456 18.6516C12.6928 18.7204 12.6646 18.8019 12.6646 18.886V19.5906C12.6646 19.8168 12.8669 20.0001 13.1163 20.0001H19.2455C19.4949 20.0001 19.6973 19.8168 19.6973 19.5906V18.8039C19.6968 18.5775 19.4949 18.3944 19.2451 18.3944Z" fill="#8E8E8E"/>
</svg>
