<svg width="20" height="20" viewBox="0 0 20 20" fill="none" xmlns="http://www.w3.org/2000/svg">
<path d="M10 0C4.48609 0 0 4.48609 0 10C0 15.5139 4.48609 20 10 20C15.5139 20 20 15.5139 20 10C20 4.48609 15.5139 0 10 0ZM10 17.5C5.86465 17.5 2.5 14.1354 2.5 10C2.5 8.42164 2.97852 6.92953 3.88836 5.65633L14.3437 16.1116C13.0705 17.0215 11.5784 17.5 10 17.5ZM16.1116 14.3437L5.65633 3.88836C6.92953 2.97852 8.42164 2.5 10 2.5C14.1354 2.5 17.5 5.86465 17.5 10C17.5 11.5784 17.0215 13.0705 16.1116 14.3437Z" fill="#8E8E8E"/>
</svg>
