<svg width="16" height="20" viewBox="0 0 16 20" fill="none" xmlns="http://www.w3.org/2000/svg">
<path d="M14 6.83016H13V5.01884C13 2.51922 10.76 0.49054 8 0.49054C5.24 0.49054 3 2.51922 3 5.01884V6.83016H2C0.9 6.83016 0 7.64526 0 8.64148V17.6981C0 18.6943 0.9 19.5094 2 19.5094H14C15.1 19.5094 16 18.6943 16 17.6981V8.64148C16 7.64526 15.1 6.83016 14 6.83016ZM5 5.01884C5 3.51544 6.34 2.30186 8 2.30186C9.66 2.30186 11 3.51544 11 5.01884V6.83016H5V5.01884ZM14 17.6981H2V8.64148H14V17.6981ZM8 14.9811C9.1 14.9811 10 14.166 10 13.1698C10 12.1736 9.1 11.3585 8 11.3585C6.9 11.3585 6 12.1736 6 13.1698C6 14.166 6.9 14.9811 8 14.9811Z" fill="#505050"/>
</svg>
