<svg width="90" height="90" viewBox="0 0 90 90" fill="none" xmlns="http://www.w3.org/2000/svg">
<g clip-path="url(#clip0)">
<path d="M45 90C69.8117 90 90 69.8135 90 45C90 40.7172 89.4022 36.4966 88.2184 32.4545C87.6352 30.4669 85.5597 29.3253 83.5666 29.9084C81.5771 30.4898 80.4391 32.5726 81.0205 34.5602C82.001 37.9184 82.5 41.4322 82.5 45C82.5 65.6772 65.6772 82.5 45 82.5C24.3228 82.5 7.5 65.6772 7.5 45C7.5 24.3228 24.3228 7.5 45 7.5C52.5146 7.5 59.7446 9.69727 65.9079 13.8528C67.6236 15.011 69.9564 14.556 71.1127 12.8403C72.2699 11.1227 71.8185 8.79181 70.101 7.63458C62.6944 2.64038 54.0152 0 45 0C20.1883 0 0 20.1865 0 45C0 69.8135 20.1883 90 45 90Z" fill="#FD6060"/>
<path d="M83.5984 8.59862L44.9998 47.1954L32.6512 34.8486C31.1863 33.3847 28.8133 33.3847 27.3484 34.8486C25.8845 36.3135 25.8845 38.6865 27.3484 40.1513L42.3484 55.1513C43.0818 55.8847 44.0394 56.25 44.9998 56.25C45.9602 56.25 46.9178 55.8847 47.6512 55.1513L88.9012 13.9014C90.3651 12.4365 90.3651 10.0635 88.9012 8.59862C87.4363 7.13469 85.0633 7.13469 83.5984 8.59862Z" fill="#FD6060"/>
</g>
<defs>
<clipPath id="clip0">
<rect width="90" height="90" fill="white"/>
</clipPath>
</defs>
</svg>
